# Blender 5.0.0
# www.blender.org
mtllib tree_1_leaves.mtl
o Plane
v -5.000000 2.511353 -0.000000
v 5.000000 2.511353 -0.000000
v -5.000000 22.511353 0.000000
v 5.000000 22.511353 0.000000
vn -0.0000 -0.0000 1.0000
vt 0.000000 0.000000
vt 0.500000 0.000000
vt 0.500000 0.750000
vt 0.000000 0.750000
s 0
usemtl Leaves
f 1/1/1 2/2/1 4/3/1 3/4/1
o Plane.001
v -3.535534 2.511353 -3.535534
v 3.535534 2.511353 3.535534
v -3.535534 22.511353 -3.535534
v 3.535534 22.511353 3.535534
vn -0.7071 -0.0000 0.7071
vt 0.500000 0.000000
vt 0.000000 0.000000
vt 0.000000 0.750000
vt 0.500000 0.750000
s 0
usemtl Leaves
f 5/5/2 6/6/2 8/7/2 7/8/2
o Plane.002
v -0.000000 2.511353 5.000000
v -0.000001 2.511353 -5.000000
v 0.000001 22.511353 5.000000
v 0.000000 22.511353 -5.000000
vn 1.0000 -0.0000 -0.0000
vt 0.500000 0.000000
vt 0.000000 0.000000
vt 0.000000 0.750000
vt 0.500000 0.750000
s 0
usemtl Leaves
f 9/9/3 10/10/3 12/11/3 11/12/3
o Plane.003
v 3.535534 2.511353 -3.535534
v -3.535534 2.511353 3.535534
v 3.535534 22.511353 -3.535534
v -3.535534 22.511353 3.535534
vn -0.7071 -0.0000 -0.7071
vt 0.500000 0.000000
vt 0.000000 0.000000
vt 0.000000 0.750000
vt 0.500000 0.750000
s 0
usemtl Leaves
f 13/13/4 14/14/4 16/15/4 15/16/4
