# Blender 5.0.0
# www.blender.org
mtllib tree_1_trunk.mtl
o Cylinder.001
v 0.000000 0.000000 -1.000000
v 0.707107 0.000000 -0.707107
v 1.000000 0.000000 0.000000
v 0.707107 0.000000 0.707107
v 0.000000 0.000000 1.000000
v -0.707107 0.000000 0.707107
v -1.000000 0.000000 0.000000
v -0.707107 0.000000 -0.707107
v -0.000000 12.000000 -0.149809
v 0.000000 4.000000 -0.616697
v 0.105931 12.000000 -0.105931
v 0.436071 4.000000 -0.436071
v 0.149809 12.000000 0.000000
v 0.616697 4.000000 0.000000
v 0.105931 12.000000 0.105931
v 0.436071 4.000000 0.436071
v -0.000000 12.000000 0.149809
v 0.000000 4.000000 0.616697
v -0.105931 12.000000 0.105931
v -0.436071 4.000000 0.436071
v -0.149809 12.000000 0.000000
v -0.616697 4.000000 0.000000
v -0.105931 12.000000 -0.105931
v -0.436071 4.000000 -0.436071
v 0.328568 7.000000 -0.328568
v 0.000000 7.000000 -0.464666
v 0.464666 7.000000 0.000000
v 0.328568 7.000000 0.328568
v 0.000000 7.000000 0.464666
v -0.328568 7.000000 0.328568
v -0.464666 7.000000 0.000000
v -0.328568 7.000000 -0.328568
v -0.000000 10.000000 -0.307237
v 0.217250 10.000000 -0.217250
v 0.307237 10.000000 0.000000
v 0.217250 10.000000 0.217250
v -0.000000 10.000000 0.307237
v -0.217250 10.000000 0.217250
v -0.307237 10.000000 0.000000
v -0.217250 10.000000 -0.217250
vn -0.3812 0.0882 -0.9203
vn 0.9203 0.0882 0.3812
vn 0.3812 0.0882 0.9203
vn -0.3812 0.0882 0.9203
vn -0.9203 0.0882 0.3812
vn -0.9203 0.0882 -0.3812
vn 0.3812 0.0882 -0.9203
vn 0.9203 0.0882 -0.3812
vn -0.0000 -1.0000 -0.0000
vn 0.3817 0.0725 -0.9214
vn 0.9214 0.0725 -0.3817
vn 0.9214 0.0725 0.3817
vn 0.3817 0.0725 0.9214
vn -0.3817 0.0725 0.9214
vn -0.9214 0.0725 0.3817
vn -0.9214 0.0725 -0.3817
vn -0.3817 0.0725 -0.9214
vn -0.0000 1.0000 -0.0000
vn -0.3823 0.0468 -0.9229
vn -0.9229 0.0468 -0.3823
vn -0.9229 0.0468 0.3823
vn -0.3823 0.0468 0.9229
vn 0.3823 0.0468 0.9229
vn 0.9229 0.0468 0.3823
vn 0.9229 0.0468 -0.3823
vn 0.3823 0.0468 -0.9229
vn -0.3822 0.0484 -0.9228
vn -0.9228 0.0484 -0.3822
vn -0.9228 0.0484 0.3822
vn -0.3822 0.0484 0.9228
vn 0.3822 0.0484 0.9228
vn 0.9228 0.0484 0.3822
vn 0.9228 0.0484 -0.3822
vn 0.3822 0.0484 -0.9228
vt 0.781250 0.750000
vt 0.781250 0.890625
vt 0.750000 0.890625
vt 0.750000 0.750000
vt 0.937500 0.750000
vt 0.937500 0.890625
vt 0.906250 0.890625
vt 0.906250 0.750000
vt 0.875000 0.890625
vt 0.875000 0.750000
vt 0.845703 0.890625
vt 0.845703 0.750000
vt 0.812500 0.890625
vt 0.812500 0.750000
vt 1.000000 0.750000
vt 1.000000 0.890625
vt 0.968750 0.890625
vt 0.968750 0.750000
vt 0.796875 0.836292
vt 0.824747 0.824747
vt 0.836292 0.796875
vt 0.824747 0.769003
vt 0.796875 0.757458
vt 0.769003 0.769003
vt 0.757458 0.796875
vt 0.769003 0.824747
vt 1.000000 1.000000
vt 0.968750 1.000000
vt 0.937500 1.000000
vt 0.906250 1.000000
vt 0.875000 1.000000
vt 0.843750 0.890625
vt 0.843750 1.000000
vt 0.812500 1.000000
vt 0.781250 1.000000
vt 0.750000 1.000000
vt 0.284688 0.597188
vt 0.250000 0.611556
vt 0.215312 0.597188
vt 0.200944 0.562500
vt 0.215312 0.527812
vt 0.250000 0.513444
vt 0.284688 0.527812
vt 0.299056 0.562500
vt 0.845703 1.000000
vt 0.843750 0.750000
s 0
usemtl Bark
f 8/1/1 24/2/1 10/3/1 1/4/1
f 3/5/2 14/6/2 16/7/2 4/8/2
f 4/8/3 16/7/3 18/9/3 5/10/3
f 5/10/4 18/9/4 20/11/4 6/12/4
f 6/12/5 20/11/5 22/13/5 7/14/5
f 7/14/6 22/13/6 24/2/6 8/1/6
f 1/15/7 10/16/7 12/17/7 2/18/7
f 2/18/8 12/17/8 14/6/8 3/5/8
f 1/19/9 2/20/9 3/21/9 4/22/9 5/23/9 6/24/9 7/25/9 8/26/9
f 34/17/10 33/16/10 9/27/10 11/28/10
f 35/6/11 34/17/11 11/28/11 13/29/11
f 36/7/12 35/6/12 13/29/12 15/30/12
f 37/9/13 36/7/13 15/30/13 17/31/13
f 38/32/14 37/9/14 17/31/14 19/33/14
f 39/13/15 38/32/15 19/33/15 21/34/15
f 40/2/16 39/13/16 21/34/16 23/35/16
f 33/3/17 40/2/17 23/35/17 9/36/17
f 11/37/18 9/38/18 23/39/18 21/40/18 19/41/18 17/42/18 15/43/18 13/44/18
f 10/3/19 24/2/19 32/35/19 26/36/19
f 24/2/20 22/13/20 31/34/20 32/35/20
f 22/13/21 20/11/21 30/45/21 31/34/21
f 20/11/22 18/9/22 29/31/22 30/45/22
f 18/9/23 16/7/23 28/30/23 29/31/23
f 16/7/24 14/6/24 27/29/24 28/30/24
f 14/6/25 12/17/25 25/28/25 27/29/25
f 12/17/26 10/16/26 26/27/26 25/28/26
f 26/4/27 32/1/27 40/2/27 33/3/27
f 32/1/28 31/14/28 39/13/28 40/2/28
f 31/14/29 30/46/29 38/32/29 39/13/29
f 30/46/30 29/10/30 37/9/30 38/32/30
f 29/10/31 28/8/31 36/7/31 37/9/31
f 28/8/32 27/5/32 35/6/32 36/7/32
f 27/5/33 25/18/33 34/17/33 35/6/33
f 25/18/34 26/15/34 33/16/34 34/17/34
